<?xml version="1.0" standalone="no"?>
<!DOCTYPE svg PUBLIC "-//W3C//DTD SVG 20010904//EN"
 "http://www.w3.org/TR/2001/REC-SVG-20010904/DTD/svg10.dtd">
<svg version="1.0" xmlns="http://www.w3.org/2000/svg"
 width="834.000000pt" height="1280.000000pt" viewBox="0 0 834.000000 1280.000000"
 preserveAspectRatio="xMidYMid meet">
<g transform="translate(0.000000,1280.000000) scale(0.100000,-0.100000)"
fill="#000000" stroke="none">
<path d="M3470 12199 c-1158 -93 -2157 -801 -2615 -1853 -466 -1070 -302
-2284 432 -3201 159 -199 395 -421 609 -572 446 -315 962 -508 1508 -563 116
-12 553 -8 691 6 l61 6 38 -62 c22 -35 69 -94 105 -133 116 -123 241 -193 416
-232 l100 -22 28 -59 c16 -32 80 -177 143 -322 108 -248 114 -265 104 -301
-13 -49 -16 -141 -6 -219 l8 -62 -56 -26 c-31 -14 -56 -30 -56 -35 0 -14 63
-160 815 -1894 776 -1787 794 -1828 803 -1837 4 -3 34 4 66 18 33 13 64 24 70
24 6 0 23 -20 39 -44 41 -65 129 -143 198 -176 295 -139 633 51 673 380 6 50
1 102 -20 197 -6 32 -5 33 55 59 33 15 61 31 61 36 0 13 -69 174 -810 1883
-828 1907 -803 1850 -821 1848 -7 0 -43 -12 -78 -25 l-63 -23 -26 35 c-45 59
-110 119 -166 150 -39 22 -57 40 -68 68 -9 20 -68 158 -132 306 -64 147 -116
273 -116 278 0 6 15 31 33 57 56 77 85 135 119 233 30 87 32 102 33 233 0 109
-4 156 -20 214 l-20 74 65 55 c115 99 375 364 453 464 444 561 677 1228 677
1938 0 727 -251 1425 -715 1985 -88 106 -270 290 -375 379 -478 405 -1060 655
-1685 726 -134 15 -424 20 -555 9z m410 -249 c257 -19 497 -66 720 -140 727
-243 1323 -765 1660 -1455 156 -320 235 -593 276 -945 22 -196 15 -548 -15
-735 -116 -715 -475 -1346 -1016 -1785 -276 -225 -672 -430 -1030 -533 -606
-176 -1250 -143 -1841 93 -445 178 -829 460 -1139 835 -550 668 -769 1553
-594 2395 73 350 226 714 424 1010 565 844 1558 1334 2555 1260z"/>
</g>
</svg>
